ply
format ascii 1.0
comment Created by Blender 2.73 (sub 0) - www.blender.org, source file: ''
element vertex 311
property float x
property float y
property float z
element face 598
property list uchar uint vertex_indices
end_header
0.055496 0.111617 -0.151488
-0.071180 0.111304 -0.151488
-0.071180 0.111304 -0.112610
0.055496 0.111617 -0.112610
-0.134250 0.001446 -0.151488
-0.134250 0.001446 -0.112610
-0.070637 -0.108105 -0.151488
-0.070637 -0.108105 -0.112610
0.056040 -0.107791 -0.151488
0.056040 -0.107791 -0.112610
0.119102 0.002066 -0.151488
0.119102 0.002066 -0.112610
-0.071180 0.111304 -0.073724
0.055496 0.111617 -0.073724
-0.134250 0.001446 -0.073724
-0.070637 -0.108105 -0.073724
0.056040 -0.107791 -0.073724
0.119102 0.002066 -0.073724
-0.115313 0.307537 -0.053294
0.099262 0.308401 -0.053294
-0.222148 0.001232 -0.026708
-0.114402 -0.304889 -0.053294
0.100172 -0.304016 -0.053294
0.207000 0.002288 -0.026708
0.098612 0.467247 -0.053294
-0.115963 0.466376 -0.053294
-0.115963 0.466376 0.065741
0.098612 0.467247 0.065741
-0.222148 0.001232 0.039154
-0.115313 0.307537 0.065741
-0.114402 -0.304889 0.065741
-0.113775 -0.459169 -0.053294
0.100799 -0.458305 -0.053294
0.100799 -0.458305 0.065741
-0.113775 -0.459169 0.065741
0.207000 0.002288 0.039154
0.100172 -0.304016 0.065741
0.099262 0.308401 0.065741
-0.007574 0.001760 0.039154
-0.139994 0.001408 0.014013
-0.139994 -0.005996 0.004559
-0.357980 -0.005996 0.004559
-0.357980 0.001408 0.014013
-0.139994 -0.020283 0.004842
-0.357980 -0.020283 0.004842
-0.139994 -0.027465 0.014579
-0.357980 -0.027465 0.014579
-0.139994 -0.020199 0.024308
-0.357980 -0.020199 0.024308
-0.139994 -0.005605 0.024025
-0.357980 -0.005605 0.024025
-0.575966 -0.005996 0.004559
-0.575966 0.001408 0.014013
-0.575966 -0.020283 0.004842
-0.575966 -0.027465 0.014579
-0.575966 -0.020199 0.024308
-0.575966 -0.005605 0.024025
-0.793959 -0.005996 0.004559
-0.793959 0.001408 0.014013
-0.793959 -0.020283 0.004842
-0.793959 -0.027465 0.014579
-0.793959 -0.020199 0.024308
-0.793959 -0.005605 0.024025
-1.011945 -0.005996 0.004559
-1.011945 0.001408 0.014013
-1.011945 -0.020283 0.004842
-1.011945 -0.027465 0.014579
-1.011945 -0.020199 0.024308
-1.011945 -0.005605 0.024025
-1.229931 -0.005996 0.004559
-1.229931 0.001408 0.014013
-1.229931 -0.020283 0.004842
-1.229931 -0.027465 0.014579
-1.229931 -0.020199 0.024308
-1.229931 -0.005605 0.024025
-1.233113 0.256039 -0.021377
-1.233113 0.412590 -0.011334
-1.233113 -0.052599 -0.016306
-1.233113 -0.209701 -0.001138
-1.233113 -0.055062 0.040148
-1.233113 0.260115 0.034963
-1.391653 0.256039 -0.021377
-1.391653 0.412590 -0.011334
-1.391653 -0.052599 -0.016306
-1.391653 -0.209701 -0.001138
-1.391653 -0.055062 0.040148
-1.391653 0.260115 0.034963
-1.550186 0.256039 -0.021377
-1.550186 0.412590 -0.011334
-1.550186 -0.052599 -0.016306
-1.550186 -0.209701 -0.001138
-1.550186 -0.055062 0.040148
-1.550186 0.260115 0.034963
-1.708727 0.256039 -0.021377
-1.708727 0.412590 -0.011334
-1.708727 -0.052599 -0.016306
-1.708727 -0.209701 -0.001138
-1.708727 -0.055062 0.040148
-1.708727 0.260115 0.034963
-1.867260 0.256039 -0.021377
-1.867260 0.412590 -0.011334
-1.867260 -0.052599 -0.016306
-1.867260 -0.209701 -0.001138
-1.867260 -0.055062 0.040148
-1.867260 0.260115 0.034963
-0.139994 -0.013025 0.014480
-1.867260 0.102340 0.014564
0.166409 -0.010554 0.014013
0.166409 -0.003150 0.004559
0.384395 -0.003150 0.004559
0.384395 -0.010554 0.014013
0.166409 0.011137 0.004842
0.384395 0.011137 0.004842
0.166409 0.018327 0.014579
0.384395 0.018327 0.014579
0.166409 0.011061 0.024308
0.384395 0.011061 0.024308
0.166409 -0.003533 0.024025
0.384395 -0.003533 0.024025
0.602381 -0.003150 0.004559
0.602381 -0.010554 0.014013
0.602381 0.011137 0.004842
0.602381 0.018327 0.014579
0.602381 0.011061 0.024308
0.602381 -0.003533 0.024025
0.820374 -0.003150 0.004559
0.820374 -0.010554 0.014013
0.820374 0.011137 0.004842
0.820374 0.018327 0.014579
0.820374 0.011061 0.024308
0.820374 -0.003533 0.024025
1.038360 -0.003150 0.004559
1.038360 -0.010554 0.014013
1.038360 0.011137 0.004842
1.038360 0.018327 0.014579
1.038360 0.011061 0.024308
1.038360 -0.003533 0.024025
1.256346 -0.003150 0.004559
1.256346 -0.010554 0.014013
1.256346 0.011137 0.004842
1.256346 0.018327 0.014579
1.256346 0.011061 0.024308
1.256346 -0.003533 0.024025
1.259527 -0.265185 -0.021377
1.259527 -0.421736 -0.011334
1.259527 0.043460 -0.016306
1.259527 0.200563 -0.001138
1.259527 0.045923 0.040148
1.259527 -0.269254 0.034963
1.418068 -0.265185 -0.021377
1.418068 -0.421736 -0.011334
1.418068 0.043460 -0.016306
1.418068 0.200563 -0.001138
1.418068 0.045923 0.040148
1.418068 -0.269254 0.034963
1.576601 -0.265185 -0.021377
1.576601 -0.421736 -0.011334
1.576601 0.043460 -0.016306
1.576601 0.200563 -0.001138
1.576601 0.045923 0.040148
1.576601 -0.269254 0.034963
1.735142 -0.265185 -0.021377
1.735142 -0.421736 -0.011334
1.735142 0.043460 -0.016306
1.735142 0.200563 -0.001138
1.735142 0.045923 0.040148
1.735142 -0.269254 0.034963
1.893675 -0.265185 -0.021377
1.893675 -0.421736 -0.011334
1.893675 0.043460 -0.016306
1.893675 0.200563 -0.001138
1.893675 0.045923 0.040148
1.893675 -0.269254 0.034963
0.166409 0.003879 0.014480
1.893675 -0.111478 0.014564
-0.095793 -6.620861 0.047116
-0.117462 -5.978308 0.047116
-0.204840 -6.620203 -0.009040
-0.250808 -5.977512 -0.009040
0.122238 -6.622192 0.039659
0.149139 -5.979898 0.039659
0.229602 -6.622842 -0.023893
0.280427 -5.980679 -0.023893
0.117886 -6.622161 -0.029806
0.143823 -5.979860 -0.029806
-0.097438 -6.620853 0.001929
-0.119473 -5.978292 0.001929
-0.117087 -5.335877 0.047116
-0.252781 -5.335082 -0.009040
0.154233 -5.337468 0.039659
0.287839 -5.338255 -0.023893
0.148817 -5.337437 -0.029806
-0.119137 -5.335869 0.001929
-0.116636 -4.693453 0.047116
-0.254693 -4.692658 -0.009040
0.159388 -4.695044 0.039659
0.295312 -4.695826 -0.023893
0.153881 -4.695011 -0.029806
-0.118724 -4.693441 0.001929
-0.116116 -4.051027 0.047116
-0.256521 -4.050231 -0.009040
0.164619 -4.052617 0.039659
0.302868 -4.053401 -0.023893
0.159021 -4.052585 -0.029806
-0.118234 -4.051014 0.001929
-0.115519 -3.408600 0.047116
-0.258288 -3.407804 -0.009040
0.169928 -3.410191 0.039659
0.310494 -3.410971 -0.023893
0.164229 -3.410160 -0.029806
-0.117676 -3.408592 0.001929
-0.114854 -2.766177 0.047116
-0.259979 -2.765381 -0.009040
0.175305 -2.767768 0.039659
0.318189 -2.768548 -0.023893
0.169514 -2.767737 -0.029806
-0.117049 -2.766162 0.001929
-0.114112 -2.123746 0.047116
-0.261592 -2.122951 -0.009040
0.180750 -2.125337 0.039659
0.325960 -2.126125 -0.023893
0.174869 -2.125306 -0.029806
-0.116345 -2.123738 0.001929
-0.113301 -1.481323 0.047116
-0.263137 -1.480528 -0.009040
0.186273 -1.482914 0.039659
0.333799 -1.483694 -0.023893
0.180299 -1.482883 -0.029806
-0.115565 -1.481308 0.001929
-0.112421 -0.838892 0.047116
-0.264606 -0.838097 -0.009040
0.138040 -0.840208 0.039659
0.212966 -0.840598 -0.023893
0.135004 -0.840193 -0.029806
-0.114716 -0.838885 0.001929
-0.111465 -0.196469 0.047116
-0.266006 -0.195674 -0.009040
0.142875 -0.197777 0.039659
0.218963 -0.198167 -0.023893
0.139792 -0.197762 -0.029806
-0.113798 -0.196454 0.001929
0.012443 -6.621519 -0.012757
0.041928 -0.197257 -0.012757
0.073716 6.628710 0.047116
0.095392 5.986149 0.047116
0.182762 6.628098 -0.009040
0.228738 5.985385 -0.009040
-0.144308 6.630087 0.039659
-0.171216 5.987755 0.039659
-0.251672 6.630699 -0.023893
-0.302497 5.988521 -0.023893
-0.139956 6.630010 -0.029806
-0.165893 5.987755 -0.029806
0.075368 6.628710 0.001929
0.097403 5.986149 0.001929
0.095017 5.343741 0.047116
0.230711 5.342977 -0.009040
-0.176303 5.345347 0.039659
-0.309909 5.346113 -0.023893
-0.170887 5.345271 -0.029806
0.097067 5.343741 0.001929
0.094566 4.701334 0.047116
0.232616 4.700492 -0.009040
-0.181458 4.702940 0.039659
-0.317389 4.703705 -0.023893
-0.175951 4.702863 -0.029806
0.096646 4.701334 0.001929
0.094046 4.058926 0.047116
0.234451 4.058084 -0.009040
-0.186689 4.060455 0.039659
-0.324938 4.061297 -0.023893
-0.181090 4.060455 -0.029806
0.096164 4.058849 0.001929
0.093449 3.416442 0.047116
0.236211 3.415677 -0.009040
-0.191997 3.418047 0.039659
-0.332564 3.418813 -0.023893
-0.186299 3.418047 -0.029806
0.095606 3.416442 0.001929
0.092784 2.774041 0.047116
0.237901 2.773246 -0.009040
-0.197375 2.775633 0.039659
-0.340258 2.776412 -0.023893
-0.191585 2.775602 -0.029806
0.094971 2.774026 0.001929
0.092042 2.131618 0.047116
0.239522 2.130815 -0.009040
-0.202820 2.133210 0.039659
-0.348029 2.133990 -0.023893
-0.196939 2.133171 -0.029806
0.094267 2.131603 0.001929
0.091231 1.489188 0.047116
0.241067 1.488392 -0.009040
-0.208343 1.490779 0.039659
-0.355869 1.491559 -0.023893
-0.202369 1.490748 -0.029806
0.093495 1.489180 0.001929
0.090344 0.846764 0.047116
0.242536 0.845969 -0.009040
-0.160118 0.848073 0.039659
-0.235036 0.848463 -0.023893
-0.157081 0.848057 -0.029806
0.092646 0.846749 0.001929
0.089387 0.204334 0.047116
0.243936 0.203538 -0.009040
-0.164952 0.205642 0.039659
-0.241033 0.206039 -0.023893
-0.161862 0.205627 -0.029806
0.091720 0.204326 0.001929
-0.034513 6.629399 -0.012757
-0.064005 0.205122 -0.012757
3 0 1 2
3 0 2 3
3 1 4 5
3 1 5 2
3 4 6 7
3 4 7 5
3 6 8 9
3 6 9 7
3 8 10 11
3 8 11 9
3 10 0 3
3 10 3 11
3 3 2 12
3 3 12 13
3 2 5 14
3 2 14 12
3 5 7 15
3 5 15 14
3 7 9 16
3 7 16 15
3 9 11 17
3 9 17 16
3 11 3 13
3 11 13 17
3 13 12 18
3 13 18 19
3 12 14 20
3 12 20 18
3 14 15 21
3 14 21 20
3 15 16 22
3 15 22 21
3 16 17 23
3 16 23 22
3 17 13 19
3 17 19 23
3 24 25 26
3 24 26 27
3 18 20 28
3 18 28 29
3 20 21 30
3 20 30 28
3 31 32 33
3 31 33 34
3 22 23 35
3 22 35 36
3 23 19 37
3 23 37 35
3 37 29 38
3 29 28 38
3 28 30 38
3 30 36 38
3 36 35 38
3 35 37 38
3 24 19 18
3 18 25 24
3 25 18 29
3 29 26 25
3 26 29 37
3 37 27 26
3 27 37 19
3 19 24 27
3 31 21 22
3 22 32 31
3 32 22 36
3 36 33 32
3 33 36 30
3 30 34 33
3 34 30 21
3 21 31 34
3 39 40 41
3 39 41 42
3 40 43 44
3 40 44 41
3 43 45 46
3 43 46 44
3 45 47 48
3 45 48 46
3 47 49 50
3 47 50 48
3 49 39 42
3 49 42 50
3 42 41 51
3 42 51 52
3 41 44 53
3 41 53 51
3 44 46 54
3 44 54 53
3 46 48 55
3 46 55 54
3 48 50 56
3 48 56 55
3 50 42 52
3 50 52 56
3 52 51 57
3 52 57 58
3 51 53 59
3 51 59 57
3 53 54 60
3 53 60 59
3 54 55 61
3 54 61 60
3 55 56 62
3 55 62 61
3 56 52 58
3 56 58 62
3 58 57 63
3 58 63 64
3 57 59 65
3 57 65 63
3 59 60 66
3 59 66 65
3 60 61 67
3 60 67 66
3 61 62 68
3 61 68 67
3 62 58 64
3 62 64 68
3 64 63 69
3 64 69 70
3 63 65 71
3 63 71 69
3 65 66 72
3 65 72 71
3 66 67 73
3 66 73 72
3 67 68 74
3 67 74 73
3 68 64 70
3 68 70 74
3 70 69 75
3 70 75 76
3 69 71 77
3 69 77 75
3 71 72 78
3 71 78 77
3 72 73 79
3 72 79 78
3 73 74 80
3 73 80 79
3 74 70 76
3 74 76 80
3 76 75 81
3 76 81 82
3 75 77 83
3 75 83 81
3 77 78 84
3 77 84 83
3 78 79 85
3 78 85 84
3 79 80 86
3 79 86 85
3 80 76 82
3 80 82 86
3 82 81 87
3 82 87 88
3 81 83 89
3 81 89 87
3 83 84 90
3 83 90 89
3 84 85 91
3 84 91 90
3 85 86 92
3 85 92 91
3 86 82 88
3 86 88 92
3 88 87 93
3 88 93 94
3 87 89 95
3 87 95 93
3 89 90 96
3 89 96 95
3 90 91 97
3 90 97 96
3 91 92 98
3 91 98 97
3 92 88 94
3 92 94 98
3 94 93 99
3 94 99 100
3 93 95 101
3 93 101 99
3 95 96 102
3 95 102 101
3 96 97 103
3 96 103 102
3 97 98 104
3 97 104 103
3 98 94 100
3 98 100 104
3 40 39 105
3 43 40 105
3 45 43 105
3 47 45 105
3 49 47 105
3 39 49 105
3 100 99 106
3 99 101 106
3 101 102 106
3 102 103 106
3 103 104 106
3 104 100 106
3 107 108 109
3 107 109 110
3 108 111 112
3 108 112 109
3 111 113 114
3 111 114 112
3 113 115 116
3 113 116 114
3 115 117 118
3 115 118 116
3 117 107 110
3 117 110 118
3 110 109 119
3 110 119 120
3 109 112 121
3 109 121 119
3 112 114 122
3 112 122 121
3 114 116 123
3 114 123 122
3 116 118 124
3 116 124 123
3 118 110 120
3 118 120 124
3 120 119 125
3 120 125 126
3 119 121 127
3 119 127 125
3 121 122 128
3 121 128 127
3 122 123 129
3 122 129 128
3 123 124 130
3 123 130 129
3 124 120 126
3 124 126 130
3 126 125 131
3 126 131 132
3 125 127 133
3 125 133 131
3 127 128 134
3 127 134 133
3 128 129 135
3 128 135 134
3 129 130 136
3 129 136 135
3 130 126 132
3 130 132 136
3 132 131 137
3 132 137 138
3 131 133 139
3 131 139 137
3 133 134 140
3 133 140 139
3 134 135 141
3 134 141 140
3 135 136 142
3 135 142 141
3 136 132 138
3 136 138 142
3 138 137 143
3 138 143 144
3 137 139 145
3 137 145 143
3 139 140 146
3 139 146 145
3 140 141 147
3 140 147 146
3 141 142 148
3 141 148 147
3 142 138 144
3 142 144 148
3 144 143 149
3 144 149 150
3 143 145 151
3 143 151 149
3 145 146 152
3 145 152 151
3 146 147 153
3 146 153 152
3 147 148 154
3 147 154 153
3 148 144 150
3 148 150 154
3 150 149 155
3 150 155 156
3 149 151 157
3 149 157 155
3 151 152 158
3 151 158 157
3 152 153 159
3 152 159 158
3 153 154 160
3 153 160 159
3 154 150 156
3 154 156 160
3 156 155 161
3 156 161 162
3 155 157 163
3 155 163 161
3 157 158 164
3 157 164 163
3 158 159 165
3 158 165 164
3 159 160 166
3 159 166 165
3 160 156 162
3 160 162 166
3 162 161 167
3 162 167 168
3 161 163 169
3 161 169 167
3 163 164 170
3 163 170 169
3 164 165 171
3 164 171 170
3 165 166 172
3 165 172 171
3 166 162 168
3 166 168 172
3 108 107 173
3 111 108 173
3 113 111 173
3 115 113 173
3 117 115 173
3 107 117 173
3 168 167 174
3 167 169 174
3 169 170 174
3 170 171 174
3 171 172 174
3 172 168 174
3 175 176 177
3 176 178 177
3 179 180 175
3 180 176 175
3 181 182 179
3 182 180 179
3 183 184 181
3 184 182 181
3 185 186 183
3 186 184 183
3 177 178 185
3 178 186 185
3 176 187 178
3 187 188 178
3 180 189 176
3 189 187 176
3 182 190 180
3 190 189 180
3 184 191 182
3 191 190 182
3 186 192 184
3 192 191 184
3 178 188 186
3 188 192 186
3 187 193 188
3 193 194 188
3 189 195 187
3 195 193 187
3 190 196 189
3 196 195 189
3 191 197 190
3 197 196 190
3 192 198 191
3 198 197 191
3 188 194 192
3 194 198 192
3 193 199 194
3 199 200 194
3 195 201 193
3 201 199 193
3 196 202 195
3 202 201 195
3 197 203 196
3 203 202 196
3 198 204 197
3 204 203 197
3 194 200 198
3 200 204 198
3 199 205 200
3 205 206 200
3 201 207 199
3 207 205 199
3 202 208 201
3 208 207 201
3 203 209 202
3 209 208 202
3 204 210 203
3 210 209 203
3 200 206 204
3 206 210 204
3 205 211 206
3 211 212 206
3 207 213 205
3 213 211 205
3 208 214 207
3 214 213 207
3 209 215 208
3 215 214 208
3 210 216 209
3 216 215 209
3 206 212 210
3 212 216 210
3 211 217 212
3 217 218 212
3 213 219 211
3 219 217 211
3 214 220 213
3 220 219 213
3 215 221 214
3 221 220 214
3 216 222 215
3 222 221 215
3 212 218 216
3 218 222 216
3 217 223 218
3 223 224 218
3 219 225 217
3 225 223 217
3 220 226 219
3 226 225 219
3 221 227 220
3 227 226 220
3 222 228 221
3 228 227 221
3 218 224 222
3 224 228 222
3 223 229 224
3 229 230 224
3 225 231 223
3 231 229 223
3 226 232 225
3 232 231 225
3 227 233 226
3 233 232 226
3 228 234 227
3 234 233 227
3 224 230 228
3 230 234 228
3 229 235 230
3 235 236 230
3 231 237 229
3 237 235 229
3 232 238 231
3 238 237 231
3 233 239 232
3 239 238 232
3 234 240 233
3 240 239 233
3 230 236 234
3 236 240 234
3 177 241 175
3 175 241 179
3 179 241 181
3 181 241 183
3 183 241 185
3 185 241 177
3 235 242 236
3 237 242 235
3 238 242 237
3 239 242 238
3 240 242 239
3 236 242 240
3 243 244 245
3 244 246 245
3 247 248 243
3 248 244 243
3 249 250 247
3 250 248 247
3 251 252 249
3 252 250 249
3 253 254 251
3 254 252 251
3 245 246 253
3 246 254 253
3 244 255 246
3 255 256 246
3 248 257 244
3 257 255 244
3 250 258 248
3 258 257 248
3 252 259 250
3 259 258 250
3 254 260 252
3 260 259 252
3 246 256 254
3 256 260 254
3 255 261 256
3 261 262 256
3 257 263 255
3 263 261 255
3 258 264 257
3 264 263 257
3 259 265 258
3 265 264 258
3 260 266 259
3 266 265 259
3 256 262 260
3 262 266 260
3 261 267 262
3 267 268 262
3 263 269 261
3 269 267 261
3 264 270 263
3 270 269 263
3 265 271 264
3 271 270 264
3 266 272 265
3 272 271 265
3 262 268 266
3 268 272 266
3 267 273 268
3 273 274 268
3 269 275 267
3 275 273 267
3 270 276 269
3 276 275 269
3 271 277 270
3 277 276 270
3 272 278 271
3 278 277 271
3 268 274 272
3 274 278 272
3 273 279 274
3 279 280 274
3 275 281 273
3 281 279 273
3 276 282 275
3 282 281 275
3 277 283 276
3 283 282 276
3 278 284 277
3 284 283 277
3 274 280 278
3 280 284 278
3 279 285 280
3 285 286 280
3 281 287 279
3 287 285 279
3 282 288 281
3 288 287 281
3 283 289 282
3 289 288 282
3 284 290 283
3 290 289 283
3 280 286 284
3 286 290 284
3 285 291 286
3 291 292 286
3 287 293 285
3 293 291 285
3 288 294 287
3 294 293 287
3 289 295 288
3 295 294 288
3 290 296 289
3 296 295 289
3 286 292 290
3 292 296 290
3 291 297 292
3 297 298 292
3 293 299 291
3 299 297 291
3 294 300 293
3 300 299 293
3 295 301 294
3 301 300 294
3 296 302 295
3 302 301 295
3 292 298 296
3 298 302 296
3 297 303 298
3 303 304 298
3 299 305 297
3 305 303 297
3 300 306 299
3 306 305 299
3 301 307 300
3 307 306 300
3 302 308 301
3 308 307 301
3 298 304 302
3 304 308 302
3 245 309 243
3 243 309 247
3 247 309 249
3 249 309 251
3 251 309 253
3 253 309 245
3 303 310 304
3 305 310 303
3 306 310 305
3 307 310 306
3 308 310 307
3 304 310 308
