ply
format ascii 1.0
comment Created by Blender 2.73 (sub 0) - www.blender.org, source file: ''
element vertex 64
property float x
property float y
property float z
element face 116
property list uchar uint vertex_indices
end_header
0.039616 0.044785 0.058456
0.013588 0.048304 0.058379
0.020671 0.127390 0.294749
0.046699 0.123336 0.294874
0.001878 -0.037743 0.060255
-0.005205 -0.060460 0.300514
0.027906 -0.041262 0.060333
0.020824 -0.064514 0.300639
0.019875 0.171064 0.816411
0.045903 0.167010 0.816618
-0.004417 -0.031548 0.826584
0.021619 -0.035526 0.826783
0.023852 0.178100 1.196372
0.049881 0.175041 1.196563
-0.008387 -0.010974 1.209191
0.017642 -0.014033 1.209382
0.022590 0.149801 1.548423
0.048618 0.146971 1.548644
-0.007124 0.014191 1.591500
0.018904 0.011361 1.591722
0.020747 0.003482 0.059355
0.020747 0.099855 1.584761
0.039616 -0.045087 -0.059253
0.013588 -0.048605 -0.059176
0.020671 -0.127691 -0.295547
0.046699 -0.123637 -0.295671
0.001878 0.037442 -0.061053
-0.005205 0.060159 -0.301312
0.027906 0.040961 -0.061130
0.020824 0.064213 -0.301436
0.019875 -0.171365 -0.817211
0.045911 -0.167311 -0.817413
-0.004417 0.031247 -0.827380
0.021611 0.035224 -0.827580
0.023852 -0.178402 -1.197165
0.049881 -0.175343 -1.197364
-0.008387 0.010672 -1.209984
0.017642 0.013731 -1.210183
0.022590 -0.150102 -1.549216
0.048618 -0.147349 -1.549445
-0.007132 -0.014568 -1.592293
0.018904 -0.011738 -1.592515
0.020747 -0.003783 -0.060154
0.020747 -0.100156 -1.585555
-0.160411 0.044174 0.076775
-0.045643 0.040655 0.076775
-0.160411 0.088000 0.000876
-0.045643 0.080962 0.000876
-0.160411 -0.043481 0.076775
-0.045643 -0.039962 0.076775
-0.160411 -0.087307 0.000876
-0.045643 -0.080270 0.000876
-0.160411 -0.043481 -0.075022
-0.045643 -0.039962 -0.075022
-0.160411 0.044174 -0.075022
-0.045643 0.040655 -0.075022
0.069132 0.037136 0.076775
0.069132 0.073926 0.000876
0.069132 -0.036443 0.076775
0.069132 -0.073310 0.000876
0.069132 -0.036443 -0.075022
0.069132 0.037136 -0.075022
-0.160411 0.000347 0.000876
0.069132 0.000347 0.000876
3 0 1 2
3 0 2 3
3 1 4 5
3 1 5 2
3 4 6 7
3 4 7 5
3 6 0 3
3 6 3 7
3 3 2 8
3 3 8 9
3 2 5 10
3 2 10 8
3 5 7 11
3 5 11 10
3 7 3 9
3 7 9 11
3 9 8 12
3 9 12 13
3 8 10 14
3 8 14 12
3 10 11 15
3 10 15 14
3 11 9 13
3 11 13 15
3 13 12 16
3 13 16 17
3 12 14 18
3 12 18 16
3 14 15 19
3 14 19 18
3 15 13 17
3 15 17 19
3 1 0 20
3 4 1 20
3 6 4 20
3 0 6 20
3 17 16 21
3 16 18 21
3 18 19 21
3 19 17 21
3 22 23 24
3 22 24 25
3 23 26 27
3 23 27 24
3 26 28 29
3 26 29 27
3 28 22 25
3 28 25 29
3 25 24 30
3 25 30 31
3 24 27 32
3 24 32 30
3 27 29 33
3 27 33 32
3 29 25 31
3 29 31 33
3 31 30 34
3 31 34 35
3 30 32 36
3 30 36 34
3 32 33 37
3 32 37 36
3 33 31 35
3 33 35 37
3 35 34 38
3 35 38 39
3 34 36 40
3 34 40 38
3 36 37 41
3 36 41 40
3 37 35 39
3 37 39 41
3 23 22 42
3 26 23 42
3 28 26 42
3 22 28 42
3 39 38 43
3 38 40 43
3 40 41 43
3 41 39 43
3 44 45 46
3 45 47 46
3 48 49 44
3 49 45 44
3 50 51 48
3 51 49 48
3 52 53 50
3 53 51 50
3 54 55 52
3 55 53 52
3 46 47 54
3 47 55 54
3 45 56 47
3 56 57 47
3 49 58 45
3 58 56 45
3 51 59 49
3 59 58 49
3 53 60 51
3 60 59 51
3 55 61 53
3 61 60 53
3 47 57 55
3 57 61 55
3 46 62 44
3 44 62 48
3 48 62 50
3 50 62 52
3 52 62 54
3 54 62 46
3 56 63 57
3 58 63 56
3 59 63 58
3 60 63 59
3 61 63 60
3 57 63 61
