ply
format ascii 1.0
comment Created by Blender 2.73 (sub 0) - www.blender.org, source file: 'elias.blend'
element vertex 697
property float x
property float y
property float z
element face 1379
property list uchar uint vertex_indices
end_header
-0.017550 7.946121 0.644842
-0.190180 7.945586 0.703047
-0.157979 7.945434 0.793900
-0.192268 7.945662 0.616133
-0.175066 7.945815 0.538767
-0.149382 7.945892 0.476557
-0.126031 7.945968 0.435116
-0.115850 7.945968 0.420056
-0.083084 7.945968 0.420056
-0.050317 7.945968 0.420056
-0.017550 7.945968 0.420056
0.015216 7.945968 0.420056
0.047983 7.945968 0.420056
0.080750 7.945968 0.420056
0.090938 7.945968 0.435116
0.114281 7.945892 0.476557
0.139973 7.945815 0.538767
0.157175 7.945662 0.616133
0.155087 7.945586 0.703047
0.122886 7.945434 0.793900
0.087289 7.945434 0.833558
0.038239 7.945356 0.857352
-0.017550 7.945356 0.865283
-0.073332 7.945356 0.857352
-0.122382 7.945434 0.833558
-0.439678 2.511462 0.828478
-0.536494 2.512280 0.640653
-0.984443 2.216378 0.450124
-0.804066 2.216378 0.799449
-0.542773 2.513068 0.460976
-0.996146 2.216378 0.116001
-0.491046 2.513764 0.301037
-0.899773 2.216378 -0.181375
-0.413833 2.514322 0.172435
-0.755910 2.216378 -0.420460
-0.343657 2.514697 0.086768
-0.625157 2.216378 -0.579713
-0.313040 2.514835 0.055635
-0.568114 2.216378 -0.637583
-0.214541 2.514835 0.055635
-0.384585 2.216378 -0.637583
-0.116041 2.514835 0.055635
-0.201064 2.216378 -0.637583
-0.017542 2.514835 0.055635
-0.017542 2.216378 -0.637583
0.080956 2.514835 0.055635
0.165978 2.216378 -0.637583
0.179455 2.514835 0.055635
0.349499 2.216378 -0.637583
0.277946 2.514835 0.055635
0.533021 2.216378 -0.637583
0.308572 2.514697 0.086768
0.590071 2.216378 -0.579713
0.378748 2.514322 0.172435
0.720817 2.216378 -0.420460
0.455953 2.513764 0.301037
0.864680 2.216378 -0.181375
0.507681 2.513068 0.460976
0.961053 2.216378 0.116001
0.501401 2.512280 0.640653
0.949350 2.216378 0.450124
0.404593 2.511462 0.828478
0.768973 2.216378 0.799449
0.297604 2.511102 0.910468
0.569634 2.216378 0.951955
0.150146 2.510888 0.959660
0.294888 2.216378 1.043457
-0.017542 2.510819 0.976057
-0.017542 2.216378 1.073959
-0.185231 2.510888 0.959660
-0.329981 2.216378 1.043458
-0.332689 2.511102 0.910468
-0.604720 2.216378 0.951955
-1.184103 1.658250 0.347315
-0.966484 1.658250 0.834704
-1.198222 1.658250 -0.118863
-1.081948 1.658250 -0.533768
-0.908378 1.658250 -0.867347
-0.750633 1.658250 -1.089540
-0.681802 1.658250 -1.170286
-0.460383 1.658250 -1.170286
-0.238963 1.658250 -1.170286
-0.017542 1.658250 -1.170286
0.203870 1.658250 -1.170286
0.425290 1.658250 -1.170286
0.646710 1.658250 -1.170286
0.715540 1.658250 -1.089540
0.873292 1.658250 -0.867347
1.046855 1.658250 -0.533768
1.163137 1.658250 -0.118863
1.149018 1.658250 0.347314
0.931391 1.658250 0.834704
0.690880 1.658250 1.047483
0.359412 1.658250 1.175148
-0.017542 1.658250 1.217705
-0.394497 1.658250 1.175148
-0.725973 1.658250 1.047483
-1.340624 1.100130 0.268594
-1.093803 1.100130 0.869395
-1.356640 1.100130 -0.306061
-1.224763 1.100130 -0.817517
-1.027910 1.100130 -1.228714
-0.848994 1.100130 -1.502611
-0.770924 1.100130 -1.602143
-0.519797 1.100130 -1.602143
-0.268670 1.100130 -1.602143
-0.017542 1.100130 -1.602143
0.233585 1.100130 -1.602143
0.484712 1.100130 -1.602143
0.735831 1.100130 -1.602143
0.813901 1.100130 -1.502611
0.992817 1.100130 -1.228714
1.189670 1.100130 -0.817517
1.321548 1.100130 -0.306061
1.305531 1.100130 0.268593
1.058710 1.100130 0.869395
0.785937 1.100130 1.131689
0.409985 1.100130 1.289059
-0.017542 1.100130 1.341521
-0.445078 1.100130 1.289059
-0.821023 1.100130 1.131689
-1.465809 0.542003 0.213140
-1.195637 0.542003 0.899766
-1.483340 0.542003 -0.443606
-1.338987 0.542003 -1.028121
-1.123503 0.542003 -1.498060
-0.927660 0.542003 -1.811080
-0.842209 0.542003 -1.924823
-0.567318 0.542003 -1.924823
-0.292434 0.542003 -1.924823
-0.017542 0.542003 -1.924823
0.257341 0.542003 -1.924823
0.532233 0.542003 -1.924823
0.807117 0.542003 -1.924823
0.892567 0.542003 -1.811080
1.088418 0.542003 -1.498060
1.303895 0.542003 -1.028121
1.448247 0.542003 -0.443606
1.430724 0.542003 0.213140
1.160544 0.542003 0.899766
0.861957 0.542003 1.199524
0.450438 0.542003 1.379382
-0.485531 0.542003 1.379382
-0.004601 1.187126 1.925180
-0.423447 0.687602 1.925180
-0.004601 0.687602 1.925180
-0.897042 0.542003 1.199524
-1.564713 -0.016125 0.178481
-1.276085 -0.016125 0.917874
-1.583445 -0.016125 -0.528735
-1.429226 -0.016125 -1.158171
-1.199033 -0.016117 -1.664227
-0.989812 -0.016117 -2.001302
-0.898526 -0.016117 -2.123787
-0.604865 -0.016117 -2.123787
-0.311204 -0.016117 -2.123787
-0.017542 -0.016117 -2.123787
0.276119 -0.016125 -2.123787
0.569772 -0.016117 -2.123787
0.863433 -0.016117 -2.123787
0.954720 -0.016117 -2.001302
1.163940 -0.016117 -1.664227
1.394141 -0.016117 -1.158171
1.548352 -0.016117 -0.528735
1.529628 -0.016117 0.178480
1.241000 -0.016117 0.917873
0.922022 -0.016117 1.240674
0.482402 -0.016117 1.434352
0.414245 0.687602 1.925180
-0.004601 0.188078 1.925180
0.442851 0.188078 1.925180
-0.452046 0.188078 1.925180
-0.017542 0.542003 1.439332
-0.517487 -0.016125 1.434352
-0.017542 -0.016117 1.498907
-0.957107 -0.016125 1.240674
-1.639288 -0.574245 0.142613
-1.336746 -0.574245 0.888717
-1.658914 -0.574245 -0.571025
-1.497268 -0.574245 -1.206174
-1.255977 -0.574245 -1.716819
-1.036676 -0.574245 -2.056953
-1.298817 -0.374562 -3.024427
-1.274448 -0.374562 -3.024427
-1.285784 -0.711645 -3.024427
-1.311330 -0.711645 -3.024427
-0.633173 -0.574245 -2.180555
-0.940984 -0.574245 -2.180555
-0.325361 -0.574245 -2.180555
-0.017542 -0.574245 -2.180555
0.290269 -0.574245 -2.180555
0.598080 -0.574245 -2.180555
0.905898 -0.574245 -2.180555
1.239348 -0.374562 -3.024427
1.263724 -0.374562 -3.024427
1.276230 -0.711645 -3.024427
1.250683 -0.711645 -3.024427
1.220892 -0.574245 -1.716819
1.001583 -0.574245 -2.056953
1.462183 -0.574245 -1.206174
1.623829 -0.574245 -0.571025
1.604195 -0.574245 0.142613
1.301661 -0.574245 0.888717
0.967309 -0.574245 1.214447
0.506495 -0.574245 1.409884
-0.004601 -0.311446 1.925180
0.464420 -0.311446 1.925180
-0.473615 -0.311446 1.925180
-0.541588 -0.574245 1.409884
-0.017542 -0.574245 1.475028
-1.002395 -0.574245 1.214447
-1.689210 -1.132372 0.054614
-1.377361 -1.132372 0.773171
-1.709441 -1.132372 -0.632673
-1.542823 -1.132372 -1.244371
-1.294098 -1.132372 -1.736162
-1.068043 -1.132372 -2.063737
-0.969414 -1.132372 -2.182781
-0.652126 -1.132372 -2.182781
-0.334838 -1.132372 -2.182781
-0.017542 -1.132372 -2.182781
0.299745 -1.132372 -2.182781
0.617033 -1.132372 -2.182781
0.934321 -1.132372 -2.182781
1.032957 -1.132372 -2.063737
1.259012 -1.132372 -1.736162
1.507730 -1.132372 -1.244371
1.674356 -1.132372 -0.632673
1.654117 -1.132365 0.054614
1.342268 -1.132372 0.773171
0.997621 -1.132372 1.086872
0.522626 -1.132372 1.275093
-0.004601 -0.810962 1.925180
-0.017542 -1.132372 1.337834
-1.032714 -1.132372 1.086872
-0.557719 -1.132372 1.275093
-1.711697 -1.690493 -0.078812
-1.395648 -1.690493 0.596684
-1.732203 -1.690493 -0.724907
-1.563337 -1.690493 -1.299954
-1.311269 -1.690493 -1.762274
-1.082177 -1.690493 -2.070216
-0.982217 -1.690493 -2.182123
-0.660662 -1.690493 -2.182123
-0.339098 -1.690493 -2.182123
-0.017542 -1.690493 -2.182123
0.304013 -1.690493 -2.182123
0.625569 -1.690493 -2.182123
0.947125 -1.690493 -2.182123
1.047084 -1.690493 -2.070216
1.276184 -1.690493 -1.762274
1.528244 -1.690493 -1.299954
1.697110 -1.690493 -0.724915
1.676604 -1.690493 -0.078813
1.360556 -1.690493 0.596684
1.011281 -1.690493 0.891585
0.529892 -1.690493 1.068526
-0.017542 -1.690493 1.127505
-0.564985 -1.690493 1.068527
-1.046367 -1.690493 0.891585
-1.699972 -2.248620 -0.245408
-1.386111 -2.248620 0.372681
-1.720333 -2.248620 -0.836600
-1.552644 -2.248620 -1.362772
-1.302320 -2.248620 -1.785802
-1.074812 -2.248620 -2.067577
-0.975540 -2.248620 -2.169977
-0.656210 -2.248620 -2.169977
-0.336880 -2.248620 -2.169977
-0.017542 -2.248620 -2.169977
0.301787 -2.248620 -2.169977
0.621117 -2.248620 -2.169977
0.940455 -2.248620 -2.169977
1.039719 -2.248620 -2.067577
1.267227 -2.248620 -1.785802
1.517551 -2.248620 -1.362772
1.685247 -2.248620 -0.836600
1.664879 -2.248620 -0.245409
1.351025 -2.248620 0.372681
1.004160 -2.248620 0.642520
0.526106 -2.248620 0.804424
-0.017542 -2.248620 0.858393
-0.561191 -2.248620 0.804424
-1.039246 -2.248620 0.642521
-1.684216 -2.455355 -0.314456
-1.373299 -2.455355 0.278335
-1.704393 -2.455355 -0.881452
-1.538265 -2.455355 -1.386085
-1.290289 -2.455355 -1.791798
-1.064907 -2.455355 -2.062039
-0.966568 -2.455355 -2.160248
-0.650229 -2.455355 -2.160248
-0.333890 -2.455355 -2.160248
-0.017542 -2.455355 -2.160248
0.298797 -2.455355 -2.160248
0.615136 -2.455355 -2.160248
0.931483 -2.455355 -2.160248
1.029822 -2.455355 -2.062039
1.255196 -2.455355 -1.791798
1.503179 -2.455355 -1.386085
1.669300 -2.455355 -0.881452
1.649130 -2.455355 -0.314456
1.338206 -2.455355 0.278335
0.994592 -2.455355 0.537130
0.521012 -2.455355 0.692407
-0.017542 -2.455355 0.744166
-0.556105 -2.455355 0.692407
-1.029677 -2.455355 0.537130
-1.660528 -2.662097 -0.387280
-1.354025 -2.662097 0.177677
-1.680414 -2.662097 -0.927649
-1.516650 -2.662097 -1.408594
-1.272200 -2.662097 -1.795263
-1.050022 -2.662097 -2.052815
-0.953084 -2.662097 -2.146404
-0.641234 -2.662097 -2.146404
-0.329392 -2.662097 -2.146404
-0.017542 -2.662089 -2.146404
0.294299 -2.662089 -2.146404
0.606149 -2.662097 -2.146404
0.917991 -2.662089 -2.146404
1.014930 -2.662089 -2.052815
1.237107 -2.662089 -1.795263
1.481564 -2.662089 -1.408594
1.645329 -2.662097 -0.927649
1.625435 -2.662089 -0.387280
1.318939 -2.662089 0.177676
0.980205 -2.662097 0.424320
0.513356 -2.662097 0.572307
-0.017542 -2.662097 0.621636
-0.548449 -2.662097 0.572307
-1.015298 -2.662097 0.424321
-1.627226 -2.868831 -0.463814
-1.326933 -2.868831 0.070436
-1.646707 -2.868831 -0.974811
-1.486261 -2.868831 -1.429605
-1.246768 -2.868831 -1.795255
-1.029096 -2.868831 -2.038810
-1.314894 -2.949035 -3.024427
-1.289011 -2.949035 -3.024427
-1.283948 -3.077731 -3.024427
-1.309303 -3.077731 -3.024427
-0.628591 -2.868831 -2.127313
-0.934123 -2.868831 -2.127313
-0.323067 -2.868831 -2.127313
-0.017542 -2.868831 -2.127313
0.287982 -2.868831 -2.127313
0.593506 -2.868831 -2.127313
0.899030 -2.868831 -2.127313
1.253918 -2.949035 -3.024427
1.279794 -2.949035 -3.024427
1.274210 -3.077731 -3.024427
1.248855 -3.077731 -3.024427
1.211675 -2.868831 -1.795255
0.994003 -2.868831 -2.038810
1.451176 -2.868831 -1.429605
1.611622 -2.868831 -0.974811
1.592133 -2.868831 -0.463814
1.291848 -2.868831 0.070436
0.959982 -2.868831 0.303673
0.502602 -2.868831 0.443615
-0.017542 -2.868831 0.490262
-0.537687 -2.868831 0.443615
-0.995067 -2.868831 0.303673
-1.582015 -3.075566 -0.544101
-1.290159 -3.075566 -0.043976
-1.600953 -3.075566 -1.022462
-1.445013 -3.075566 -1.448215
-1.212242 -3.075566 -1.790506
-1.000681 -3.075566 -2.018503
-0.908378 -3.075566 -2.101361
-0.611435 -3.075566 -2.101361
-0.314485 -3.075566 -2.101361
-0.017542 -3.075566 -2.101361
0.279400 -3.075566 -2.101361
0.576342 -3.075566 -2.101361
0.873285 -3.075566 -2.101361
0.965596 -3.075566 -2.018503
1.177157 -3.075566 -1.790506
1.409927 -3.075566 -1.448215
1.565860 -3.075566 -1.022462
1.546929 -3.075566 -0.544101
1.255073 -3.075566 -0.043976
0.932523 -3.075566 0.174363
0.487993 -3.075566 0.305368
-0.017542 -3.075566 0.349036
-0.523078 -3.075566 0.305368
-0.967616 -3.075566 0.174363
-1.521430 -3.282308 -0.628580
-1.240879 -3.282308 -0.166816
-1.539634 -3.282308 -1.070243
-1.389736 -3.282308 -1.463336
-1.165975 -3.282308 -1.779377
-0.962606 -3.282308 -1.989882
-0.873875 -3.282308 -2.066384
-0.588436 -3.282308 -2.066384
-0.302989 -3.282308 -2.066384
-0.017542 -3.282308 -2.066384
0.267896 -3.282308 -2.066384
0.553343 -3.282308 -2.066384
0.838789 -3.282308 -2.066384
0.927521 -3.282308 -1.989882
1.130890 -3.282308 -1.779377
1.354643 -3.282308 -1.463336
1.504541 -3.282308 -1.070243
1.486337 -3.282308 -0.628580
1.205786 -3.282308 -0.166816
0.895734 -3.282308 0.034776
0.468412 -3.282308 0.155731
-0.017542 -3.282308 0.196050
-0.503498 -3.282308 0.155731
-0.930819 -3.282308 0.034776
-1.440133 -3.489043 -0.717649
-1.174748 -3.489043 -0.299690
-1.457350 -3.489043 -1.117411
-1.315560 -3.489043 -1.473218
-1.103899 -3.489043 -1.759269
-0.911521 -3.489043 -1.949811
-0.827585 -3.489043 -2.019047
-0.557574 -3.489043 -2.019047
-0.287562 -3.489043 -2.019047
-0.017542 -3.489043 -2.019047
0.252469 -3.489043 -2.019047
0.522481 -3.489043 -2.019047
0.792500 -3.489043 -2.019047
0.876436 -3.489043 -1.949811
1.068806 -3.489043 -1.759269
1.280467 -3.489043 -1.473218
1.422265 -3.489043 -1.117411
1.405048 -3.489043 -0.717649
1.139656 -3.489043 -0.299691
0.846362 -3.489043 -0.117223
0.442140 -3.489043 -0.007743
-0.017542 -3.489043 0.028751
-0.477232 -3.489043 -0.007743
-0.881455 -3.489043 -0.117223
-1.329205 -3.695784 -0.812132
-1.084518 -3.695784 -0.445549
-1.345083 -3.695784 -1.162760
-1.214345 -3.695783 -1.474832
-1.019191 -3.695784 -1.725729
-0.841812 -3.695782 -1.892844
-0.764423 -3.695783 -1.953574
-0.515468 -3.695784 -1.953574
-0.266505 -3.695783 -1.953574
-0.017542 -3.695784 -1.953574
0.231412 -3.695783 -1.953574
0.480375 -3.695784 -1.953574
0.729338 -3.695783 -1.953574
0.806727 -3.695783 -1.892844
0.984098 -3.695783 -1.725729
1.179260 -3.695783 -1.474832
1.309998 -3.695783 -1.162760
1.294120 -3.695782 -0.812132
1.049425 -3.695783 -0.445549
0.779000 -3.695782 -0.285508
0.406298 -3.695783 -0.189484
-0.017542 -3.695783 -0.157476
-0.441383 -3.695783 -0.189484
-0.814093 -3.695783 -0.285508
-1.013049 -4.044240 -0.989618
-0.827333 -4.044239 -0.727431
-1.025095 -4.044240 -1.240394
-0.925870 -4.044239 -1.463588
-0.777754 -4.044240 -1.643032
-0.643139 -4.044240 -1.762558
-0.584397 -4.044240 -1.805994
-0.395446 -4.044240 -1.805994
-0.206494 -4.044240 -1.805994
-0.017542 -4.044240 -1.805994
0.171409 -4.044240 -1.805994
0.360361 -4.044240 -1.805994
0.549312 -4.044240 -1.805994
0.608046 -4.044240 -1.762558
0.742669 -4.044240 -1.643032
0.890785 -4.044240 -1.463588
0.990010 -4.044239 -1.240394
0.977956 -4.044239 -0.989618
0.792248 -4.044240 -0.727431
0.587005 -4.044240 -0.612970
0.304136 -4.044240 -0.544293
-0.017542 -4.044240 -0.521400
-0.339228 -4.044239 -0.544293
-0.622090 -4.044239 -0.612970
-0.813634 -4.236747 -1.088148
-0.665121 -4.236747 -0.894508
-0.823271 -4.236747 -1.273359
-0.743925 -4.236747 -1.438202
-0.625478 -4.236748 -1.570730
-0.517824 -4.236748 -1.659010
-0.470853 -4.236748 -1.691089
-0.319747 -4.236747 -1.691089
-0.168649 -4.236747 -1.691089
-0.017542 -4.236747 -1.691089
0.133556 -4.236747 -1.691089
0.284662 -4.236747 -1.691089
0.435761 -4.236747 -1.691089
0.482731 -4.236747 -1.659010
0.590385 -4.236747 -1.570730
0.708832 -4.236747 -1.438202
0.788186 -4.236747 -1.273359
0.778549 -4.236747 -1.088148
0.630036 -4.236747 -0.894508
0.465904 -4.236747 -0.809968
0.239703 -4.236747 -0.759242
-0.017542 -4.236747 -0.742338
-0.274789 -4.236748 -0.759242
-0.500997 -4.236747 -0.809968
-0.017542 -4.406416 -1.254245
-0.222702 7.115328 0.704526
-0.184428 7.115099 0.801528
-0.225187 7.115558 0.611732
-0.204735 7.115710 0.529130
-0.174209 7.115863 0.462712
-0.146468 7.115941 0.418468
-0.134368 7.116016 0.402389
-0.095429 7.116016 0.402389
-0.056489 7.116016 0.402389
-0.017550 7.116016 0.402389
0.021389 7.116016 0.402389
0.060328 7.116016 0.402389
0.099267 7.116016 0.402389
0.111375 7.115941 0.418468
0.139116 7.115863 0.462712
0.169642 7.115710 0.529130
0.190087 7.115558 0.611732
0.187609 7.115328 0.704526
0.149335 7.115099 0.801528
0.107038 7.115022 0.843870
0.048748 7.115022 0.869275
-0.017550 7.114946 0.877743
-0.083841 7.115022 0.869275
-0.142131 7.115022 0.843870
-1.020866 8.223766 -1.057699
-1.020766 7.470071 -1.092729
-1.089658 7.469995 -1.084377
-1.083187 8.223690 -1.047151
-0.996796 8.223766 -1.059779
-0.584818 8.385917 2.182786
-0.584764 7.861757 2.219369
-0.515177 7.861681 2.180850
-0.521120 8.385840 2.151847
1.334359 -4.563676 -2.526265
1.310855 -4.297207 -2.734866
1.303221 -4.508594 -2.485092
1.351094 -4.335048 -2.794770
1.238139 -4.297207 -2.734866
1.245773 -4.508594 -2.485092
1.197900 -4.335048 -2.794770
1.214635 -4.563676 -2.526265
1.234208 -4.372189 -2.854804
1.243333 -4.618134 -2.567705
1.314786 -4.372189 -2.854804
1.305661 -4.618134 -2.567705
1.316186 -4.038465 -2.896160
1.362827 -4.057538 -2.968041
1.232808 -4.038465 -2.896160
1.186167 -4.057538 -2.968041
1.227783 -4.076154 -3.039954
1.321211 -4.076154 -3.039954
1.318098 -3.757658 -2.951880
1.367057 -3.757658 -3.027884
1.230896 -3.757658 -2.951880
1.181937 -3.757658 -3.027884
1.225466 -3.757658 -3.103881
1.323529 -3.757658 -3.103881
1.317394 -2.855118 -2.944774
1.366231 -2.855118 -3.029689
1.231600 -2.855118 -2.944774
1.182763 -2.855118 -3.029689
1.225565 -2.855118 -3.114612
1.323429 -2.855118 -3.114612
1.317394 -2.292424 -2.944767
1.366231 -2.292424 -3.029689
1.231600 -2.292424 -2.944767
1.182763 -2.292424 -3.029689
1.225565 -2.292424 -3.114612
1.323429 -2.292424 -3.114612
1.317394 -1.729738 -2.944774
1.366231 -1.729738 -3.029689
1.231600 -1.729738 -2.944774
1.182763 -1.729738 -3.029689
1.225565 -1.729738 -3.114612
1.323429 -1.729738 -3.114612
1.317394 -1.167044 -2.944774
1.366231 -1.167044 -3.029689
1.231600 -1.167044 -2.944774
1.182763 -1.167044 -3.029689
1.225565 -1.167044 -3.114612
1.323429 -1.167044 -3.114612
1.317394 -0.604350 -2.944774
1.366231 -0.604350 -3.029689
1.231600 -0.604350 -2.944774
1.182763 -0.604350 -3.029689
1.225565 -0.604350 -3.114612
1.323429 -0.604350 -3.114612
1.317394 -0.041664 -2.944774
1.366231 -0.041664 -3.029689
1.231600 -0.041664 -2.944774
1.182756 -0.041664 -3.029689
1.225565 -0.041664 -3.114612
1.323429 -0.041664 -3.114612
1.317394 0.521030 -2.944774
1.366231 0.521030 -3.029689
1.231600 0.521030 -2.944774
1.182763 0.521030 -3.029689
1.225565 0.521030 -3.114612
1.323429 0.521030 -3.114612
1.274501 -4.563676 -2.526265
1.274501 0.521030 -3.029689
-1.330811 -4.508594 -2.485092
-1.338444 -4.297207 -2.734866
-1.361949 -4.563676 -2.526265
-1.378684 -4.335048 -2.794770
-1.273362 -4.508594 -2.485092
-1.265737 -4.297207 -2.734866
-1.242225 -4.563676 -2.526265
-1.225490 -4.335048 -2.794770
-1.270922 -4.618134 -2.567705
-1.261797 -4.372189 -2.854804
-1.333251 -4.618134 -2.567705
-1.342376 -4.372189 -2.854804
-1.343775 -4.038465 -2.896160
-1.390424 -4.057538 -2.968041
-1.260405 -4.038465 -2.896160
-1.213757 -4.057539 -2.968041
-1.255380 -4.076155 -3.039954
-1.348801 -4.076154 -3.039954
-1.345695 -3.757659 -2.951880
-1.394646 -3.757659 -3.027884
-1.258486 -3.757659 -2.951880
-1.209527 -3.757659 -3.027884
-1.253063 -3.757659 -3.103881
-1.351118 -3.757659 -3.103881
-1.344984 -2.855118 -2.944774
-1.393828 -2.855118 -3.029689
-1.259197 -2.855118 -2.944774
-1.210353 -2.855118 -3.029689
-1.253155 -2.855118 -3.114612
-1.351019 -2.855118 -3.114612
-1.344984 -2.292424 -2.944767
-1.393828 -2.292424 -3.029689
-1.259197 -2.292424 -2.944767
-1.210353 -2.292424 -3.029689
-1.253155 -2.292424 -3.114612
-1.351019 -2.292424 -3.114612
-1.344984 -1.729738 -2.944774
-1.393828 -1.729738 -3.029689
-1.259197 -1.729738 -2.944774
-1.210353 -1.729738 -3.029689
-1.253155 -1.729738 -3.114612
-1.351019 -1.729738 -3.114612
-1.344984 -1.167044 -2.944774
-1.393828 -1.167044 -3.029689
-1.259189 -1.167044 -2.944774
-1.210353 -1.167044 -3.029689
-1.253155 -1.167044 -3.114612
-1.351019 -1.167044 -3.114612
-1.344984 -0.604357 -2.944774
-1.393828 -0.604357 -3.029689
-1.259197 -0.604357 -2.944774
-1.210353 -0.604357 -3.029689
-1.253155 -0.604357 -3.114612
-1.351019 -0.604357 -3.114612
-1.344984 -0.041664 -2.944774
-1.393828 -0.041664 -3.029689
-1.259197 -0.041664 -2.944774
-1.210353 -0.041664 -3.029689
-1.253155 -0.041664 -3.114612
-1.351019 -0.041664 -3.114612
-1.344984 0.521030 -2.944774
-1.393828 0.521030 -3.029689
-1.259197 0.521030 -2.944774
-1.210353 0.521030 -3.029689
-1.253155 0.521030 -3.114612
-1.351019 0.521030 -3.114612
-1.302091 -4.563676 -2.526265
-1.302091 0.521030 -3.029689
0.101562 0.402408 1.887212
-0.113013 0.401872 1.887212
-0.113013 0.401872 1.953074
0.101562 0.402408 1.953074
-0.219849 0.215789 1.887212
-0.219849 0.215789 1.953074
-0.112103 0.030226 1.887212
-0.112103 0.030226 1.953074
0.102472 0.030754 1.887212
0.102472 0.030754 1.953074
0.209300 0.216844 1.887212
0.209300 0.216844 1.953074
-0.068880 0.325860 2.091721
0.057796 0.326174 2.091721
-0.131951 0.216003 2.091721
-0.068337 0.106452 2.091721
0.058339 0.106765 2.091721
0.121402 0.216623 2.091721
-0.005274 0.216317 1.887212
3 0 1 2
3 0 3 1
3 0 4 3
3 0 5 4
3 0 6 5
3 0 7 6
3 0 8 7
3 0 9 8
3 0 10 9
3 0 11 10
3 0 12 11
3 0 13 12
3 0 14 13
3 0 15 14
3 0 16 15
3 0 17 16
3 0 18 17
3 0 19 18
3 0 20 19
3 0 21 20
3 0 22 21
3 0 23 22
3 0 24 23
3 0 2 24
3 25 26 27
3 25 27 28
3 26 29 30
3 26 30 27
3 29 31 32
3 29 32 30
3 31 33 34
3 31 34 32
3 33 35 36
3 33 36 34
3 35 37 38
3 35 38 36
3 37 39 40
3 37 40 38
3 39 41 42
3 39 42 40
3 41 43 44
3 41 44 42
3 43 45 46
3 43 46 44
3 45 47 48
3 45 48 46
3 47 49 50
3 47 50 48
3 49 51 52
3 49 52 50
3 51 53 54
3 51 54 52
3 53 55 56
3 53 56 54
3 55 57 58
3 55 58 56
3 57 59 60
3 57 60 58
3 59 61 62
3 59 62 60
3 61 63 64
3 61 64 62
3 63 65 66
3 63 66 64
3 65 67 68
3 65 68 66
3 67 69 70
3 67 70 68
3 69 71 72
3 69 72 70
3 71 25 28
3 71 28 72
3 28 27 73
3 28 73 74
3 27 30 75
3 27 75 73
3 30 32 76
3 30 76 75
3 32 34 77
3 32 77 76
3 34 36 78
3 34 78 77
3 36 38 79
3 36 79 78
3 38 40 80
3 38 80 79
3 40 42 81
3 40 81 80
3 42 44 82
3 42 82 81
3 44 46 83
3 44 83 82
3 46 48 84
3 46 84 83
3 48 50 85
3 48 85 84
3 50 52 86
3 50 86 85
3 52 54 87
3 52 87 86
3 54 56 88
3 54 88 87
3 56 58 89
3 56 89 88
3 58 60 90
3 58 90 89
3 60 62 91
3 60 91 90
3 62 64 92
3 62 92 91
3 64 66 93
3 64 93 92
3 66 68 94
3 66 94 93
3 68 70 95
3 68 95 94
3 70 72 96
3 70 96 95
3 72 28 74
3 72 74 96
3 74 73 97
3 74 97 98
3 73 75 99
3 73 99 97
3 75 76 100
3 75 100 99
3 76 77 101
3 76 101 100
3 77 78 102
3 77 102 101
3 78 79 103
3 78 103 102
3 79 80 104
3 79 104 103
3 80 81 105
3 80 105 104
3 81 82 106
3 81 106 105
3 82 83 107
3 82 107 106
3 83 84 108
3 83 108 107
3 84 85 109
3 84 109 108
3 85 86 110
3 85 110 109
3 86 87 111
3 86 111 110
3 87 88 112
3 87 112 111
3 88 89 113
3 88 113 112
3 89 90 114
3 89 114 113
3 90 91 115
3 90 115 114
3 91 92 116
3 91 116 115
3 92 93 117
3 92 117 116
3 93 94 118
3 93 118 117
3 94 95 119
3 94 119 118
3 95 96 120
3 95 120 119
3 96 74 98
3 96 98 120
3 98 97 121
3 98 121 122
3 97 99 123
3 97 123 121
3 99 100 124
3 99 124 123
3 100 101 125
3 100 125 124
3 101 102 126
3 101 126 125
3 102 103 127
3 102 127 126
3 103 104 128
3 103 128 127
3 104 105 129
3 104 129 128
3 105 106 130
3 105 130 129
3 106 107 131
3 106 131 130
3 107 108 132
3 107 132 131
3 108 109 133
3 108 133 132
3 109 110 134
3 109 134 133
3 110 111 135
3 110 135 134
3 111 112 136
3 111 136 135
3 112 113 137
3 112 137 136
3 113 114 138
3 113 138 137
3 114 115 139
3 114 139 138
3 115 116 140
3 115 140 139
3 116 117 141
3 116 141 140
3 118 119 142
3 143 144 145
3 119 120 146
3 119 146 142
3 120 98 122
3 120 122 146
3 122 121 147
3 122 147 148
3 121 123 149
3 121 149 147
3 123 124 150
3 123 150 149
3 124 125 151
3 124 151 150
3 125 126 152
3 125 152 151
3 126 127 153
3 126 153 152
3 127 128 154
3 127 154 153
3 128 129 155
3 128 155 154
3 129 130 156
3 129 156 155
3 130 131 157
3 130 157 156
3 131 132 158
3 131 158 157
3 132 133 159
3 132 159 158
3 133 134 160
3 133 160 159
3 134 135 161
3 134 161 160
3 135 136 162
3 135 162 161
3 136 137 163
3 136 163 162
3 137 138 164
3 137 164 163
3 138 139 165
3 138 165 164
3 139 140 166
3 139 166 165
3 140 141 167
3 140 167 166
3 168 145 169
3 168 169 170
3 145 144 171
3 172 173 174
3 142 146 175
3 142 175 173
3 146 122 148
3 146 148 175
3 148 147 176
3 148 176 177
3 147 149 178
3 147 178 176
3 149 150 179
3 149 179 178
3 150 151 180
3 150 180 179
3 151 152 181
3 151 181 180
3 182 183 184
3 182 184 185
3 153 154 186
3 153 186 187
3 154 155 188
3 154 188 186
3 155 156 189
3 155 189 188
3 156 157 190
3 156 190 189
3 157 158 191
3 157 191 190
3 158 159 192
3 158 192 191
3 193 194 195
3 193 195 196
3 160 161 197
3 160 197 198
3 161 162 199
3 161 199 197
3 162 163 200
3 162 200 199
3 163 164 201
3 163 201 200
3 164 165 202
3 164 202 201
3 165 166 203
3 165 203 202
3 166 167 204
3 166 204 203
3 170 169 205
3 170 205 206
3 169 171 207
3 174 208 209
3 173 175 210
3 173 210 208
3 175 148 177
3 175 177 210
3 177 176 211
3 177 211 212
3 176 178 213
3 176 213 211
3 178 179 214
3 178 214 213
3 179 180 215
3 179 215 214
3 180 181 216
3 180 216 215
3 181 187 217
3 181 217 216
3 187 186 218
3 187 218 217
3 186 188 219
3 186 219 218
3 188 189 220
3 188 220 219
3 189 190 221
3 189 221 220
3 190 191 222
3 190 222 221
3 191 192 223
3 191 223 222
3 192 198 224
3 192 224 223
3 198 197 225
3 198 225 224
3 197 199 226
3 197 226 225
3 199 200 227
3 199 227 226
3 200 201 228
3 200 228 227
3 201 202 229
3 201 229 228
3 202 203 230
3 202 230 229
3 203 204 231
3 203 231 230
3 206 205 232
3 204 233 231
3 208 210 234
3 208 234 235
3 210 177 212
3 210 212 234
3 212 211 236
3 212 236 237
3 211 213 238
3 211 238 236
3 213 214 239
3 213 239 238
3 214 215 240
3 214 240 239
3 215 216 241
3 215 241 240
3 216 217 242
3 216 242 241
3 217 218 243
3 217 243 242
3 218 219 244
3 218 244 243
3 219 220 245
3 219 245 244
3 220 221 246
3 220 246 245
3 221 222 247
3 221 247 246
3 222 223 248
3 222 248 247
3 223 224 249
3 223 249 248
3 224 225 250
3 224 250 249
3 225 226 251
3 225 251 250
3 226 227 252
3 226 252 251
3 227 228 253
3 227 253 252
3 228 229 254
3 228 254 253
3 229 230 255
3 229 255 254
3 230 231 256
3 230 256 255
3 231 233 257
3 231 257 256
3 233 235 258
3 233 258 257
3 235 234 259
3 235 259 258
3 234 212 237
3 234 237 259
3 237 236 260
3 237 260 261
3 236 238 262
3 236 262 260
3 238 239 263
3 238 263 262
3 239 240 264
3 239 264 263
3 240 241 265
3 240 265 264
3 241 242 266
3 241 266 265
3 242 243 267
3 242 267 266
3 243 244 268
3 243 268 267
3 244 245 269
3 244 269 268
3 245 246 270
3 245 270 269
3 246 247 271
3 246 271 270
3 247 248 272
3 247 272 271
3 248 249 273
3 248 273 272
3 249 250 274
3 249 274 273
3 250 251 275
3 250 275 274
3 251 252 276
3 251 276 275
3 252 253 277
3 252 277 276
3 253 254 278
3 253 278 277
3 254 255 279
3 254 279 278
3 255 256 280
3 255 280 279
3 256 257 281
3 256 281 280
3 257 258 282
3 257 282 281
3 258 259 283
3 258 283 282
3 259 237 261
3 259 261 283
3 261 260 284
3 261 284 285
3 260 262 286
3 260 286 284
3 262 263 287
3 262 287 286
3 263 264 288
3 263 288 287
3 264 265 289
3 264 289 288
3 265 266 290
3 265 290 289
3 266 267 291
3 266 291 290
3 267 268 292
3 267 292 291
3 268 269 293
3 268 293 292
3 269 270 294
3 269 294 293
3 270 271 295
3 270 295 294
3 271 272 296
3 271 296 295
3 272 273 297
3 272 297 296
3 273 274 298
3 273 298 297
3 274 275 299
3 274 299 298
3 275 276 300
3 275 300 299
3 276 277 301
3 276 301 300
3 277 278 302
3 277 302 301
3 278 279 303
3 278 303 302
3 279 280 304
3 279 304 303
3 280 281 305
3 280 305 304
3 281 282 306
3 281 306 305
3 282 283 307
3 282 307 306
3 283 261 285
3 283 285 307
3 285 284 308
3 285 308 309
3 284 286 310
3 284 310 308
3 286 287 311
3 286 311 310
3 287 288 312
3 287 312 311
3 288 289 313
3 288 313 312
3 289 290 314
3 289 314 313
3 290 291 315
3 290 315 314
3 291 292 316
3 291 316 315
3 292 293 317
3 292 317 316
3 293 294 318
3 293 318 317
3 294 295 319
3 294 319 318
3 295 296 320
3 295 320 319
3 296 297 321
3 296 321 320
3 297 298 322
3 297 322 321
3 298 299 323
3 298 323 322
3 299 300 324
3 299 324 323
3 300 301 325
3 300 325 324
3 301 302 326
3 301 326 325
3 302 303 327
3 302 327 326
3 303 304 328
3 303 328 327
3 304 305 329
3 304 329 328
3 305 306 330
3 305 330 329
3 306 307 331
3 306 331 330
3 307 285 309
3 307 309 331
3 309 308 332
3 309 332 333
3 308 310 334
3 308 334 332
3 310 311 335
3 310 335 334
3 311 312 336
3 311 336 335
3 312 313 337
3 312 337 336
3 338 339 340
3 338 340 341
3 314 315 342
3 314 342 343
3 315 316 344
3 315 344 342
3 316 317 345
3 316 345 344
3 317 318 346
3 317 346 345
3 318 319 347
3 318 347 346
3 319 320 348
3 319 348 347
3 349 350 351
3 349 351 352
3 321 322 353
3 321 353 354
3 322 323 355
3 322 355 353
3 323 324 356
3 323 356 355
3 324 325 357
3 324 357 356
3 325 326 358
3 325 358 357
3 326 327 359
3 326 359 358
3 327 328 360
3 327 360 359
3 328 329 361
3 328 361 360
3 329 330 362
3 329 362 361
3 330 331 363
3 330 363 362
3 331 309 333
3 331 333 363
3 333 332 364
3 333 364 365
3 332 334 366
3 332 366 364
3 334 335 367
3 334 367 366
3 335 336 368
3 335 368 367
3 336 337 369
3 336 369 368
3 337 343 370
3 337 370 369
3 343 342 371
3 343 371 370
3 342 344 372
3 342 372 371
3 344 345 373
3 344 373 372
3 345 346 374
3 345 374 373
3 346 347 375
3 346 375 374
3 347 348 376
3 347 376 375
3 348 354 377
3 348 377 376
3 354 353 378
3 354 378 377
3 353 355 379
3 353 379 378
3 355 356 380
3 355 380 379
3 356 357 381
3 356 381 380
3 357 358 382
3 357 382 381
3 358 359 383
3 358 383 382
3 359 360 384
3 359 384 383
3 360 361 385
3 360 385 384
3 361 362 386
3 361 386 385
3 362 363 387
3 362 387 386
3 363 333 365
3 363 365 387
3 365 364 388
3 365 388 389
3 364 366 390
3 364 390 388
3 366 367 391
3 366 391 390
3 367 368 392
3 367 392 391
3 368 369 393
3 368 393 392
3 369 370 394
3 369 394 393
3 370 371 395
3 370 395 394
3 371 372 396
3 371 396 395
3 372 373 397
3 372 397 396
3 373 374 398
3 373 398 397
3 374 375 399
3 374 399 398
3 375 376 400
3 375 400 399
3 376 377 401
3 376 401 400
3 377 378 402
3 377 402 401
3 378 379 403
3 378 403 402
3 379 380 404
3 379 404 403
3 380 381 405
3 380 405 404
3 381 382 406
3 381 406 405
3 382 383 407
3 382 407 406
3 383 384 408
3 383 408 407
3 384 385 409
3 384 409 408
3 385 386 410
3 385 410 409
3 386 387 411
3 386 411 410
3 387 365 389
3 387 389 411
3 389 388 412
3 389 412 413
3 388 390 414
3 388 414 412
3 390 391 415
3 390 415 414
3 391 392 416
3 391 416 415
3 392 393 417
3 392 417 416
3 393 394 418
3 393 418 417
3 394 395 419
3 394 419 418
3 395 396 420
3 395 420 419
3 396 397 421
3 396 421 420
3 397 398 422
3 397 422 421
3 398 399 423
3 398 423 422
3 399 400 424
3 399 424 423
3 400 401 425
3 400 425 424
3 401 402 426
3 401 426 425
3 402 403 427
3 402 427 426
3 403 404 428
3 403 428 427
3 404 405 429
3 404 429 428
3 405 406 430
3 405 430 429
3 406 407 431
3 406 431 430
3 407 408 432
3 407 432 431
3 408 409 433
3 408 433 432
3 409 410 434
3 409 434 433
3 410 411 435
3 410 435 434
3 411 389 413
3 411 413 435
3 413 412 436
3 413 436 437
3 412 414 438
3 412 438 436
3 414 415 439
3 414 439 438
3 415 416 440
3 415 440 439
3 416 417 441
3 416 441 440
3 417 418 442
3 417 442 441
3 418 419 443
3 418 443 442
3 419 420 444
3 419 444 443
3 420 421 445
3 420 445 444
3 421 422 446
3 421 446 445
3 422 423 447
3 422 447 446
3 423 424 448
3 423 448 447
3 424 425 449
3 424 449 448
3 425 426 450
3 425 450 449
3 426 427 451
3 426 451 450
3 427 428 452
3 427 452 451
3 428 429 453
3 428 453 452
3 429 430 454
3 429 454 453
3 430 431 455
3 430 455 454
3 431 432 456
3 431 456 455
3 432 433 457
3 432 457 456
3 433 434 458
3 433 458 457
3 434 435 459
3 434 459 458
3 435 413 437
3 435 437 459
3 437 436 460
3 437 460 461
3 436 438 462
3 436 462 460
3 438 439 463
3 438 463 462
3 439 440 464
3 439 464 463
3 440 441 465
3 440 465 464
3 441 442 466
3 441 466 465
3 442 443 467
3 442 467 466
3 443 444 468
3 443 468 467
3 444 445 469
3 444 469 468
3 445 446 470
3 445 470 469
3 446 447 471
3 446 471 470
3 447 448 472
3 447 472 471
3 448 449 473
3 448 473 472
3 449 450 474
3 449 474 473
3 450 451 475
3 450 475 474
3 451 452 476
3 451 476 475
3 452 453 477
3 452 477 476
3 453 454 478
3 453 478 477
3 454 455 479
3 454 479 478
3 455 456 480
3 455 480 479
3 456 457 481
3 456 481 480
3 457 458 482
3 457 482 481
3 458 459 483
3 458 483 482
3 459 437 461
3 459 461 483
3 461 460 484
3 461 484 485
3 460 462 486
3 460 486 484
3 462 463 487
3 462 487 486
3 463 464 488
3 463 488 487
3 464 465 489
3 464 489 488
3 465 466 490
3 465 490 489
3 466 467 491
3 466 491 490
3 467 468 492
3 467 492 491
3 468 469 493
3 468 493 492
3 469 470 494
3 469 494 493
3 470 471 495
3 470 495 494
3 471 472 496
3 471 496 495
3 472 473 497
3 472 497 496
3 473 474 498
3 473 498 497
3 474 475 499
3 474 499 498
3 475 476 500
3 475 500 499
3 476 477 501
3 476 501 500
3 477 478 502
3 477 502 501
3 478 479 503
3 478 503 502
3 479 480 504
3 479 504 503
3 480 481 505
3 480 505 504
3 481 482 506
3 481 506 505
3 482 483 507
3 482 507 506
3 483 461 485
3 483 485 507
3 485 484 508
3 484 486 508
3 486 487 508
3 487 488 508
3 488 489 508
3 489 490 508
3 490 491 508
3 491 492 508
3 492 493 508
3 493 494 508
3 494 495 508
3 495 496 508
3 496 497 508
3 497 498 508
3 498 499 508
3 499 500 508
3 500 501 508
3 501 502 508
3 502 503 508
3 503 504 508
3 504 505 508
3 505 506 508
3 506 507 508
3 507 485 508
3 509 26 25
3 25 510 509
3 511 29 26
3 26 509 511
3 512 31 29
3 29 511 512
3 513 33 31
3 31 512 513
3 514 35 33
3 33 513 514
3 515 37 35
3 35 514 515
3 516 39 37
3 37 515 516
3 517 41 39
3 39 516 517
3 518 43 41
3 41 517 518
3 519 45 43
3 43 518 519
3 520 47 45
3 45 519 520
3 521 49 47
3 47 520 521
3 522 51 49
3 49 521 522
3 523 53 51
3 51 522 523
3 524 55 53
3 53 523 524
3 525 57 55
3 55 524 525
3 526 59 57
3 57 525 526
3 527 61 59
3 59 526 527
3 528 63 61
3 61 527 528
3 529 65 63
3 63 528 529
3 530 67 65
3 65 529 530
3 531 69 67
3 67 530 531
3 532 71 69
3 69 531 532
3 510 25 71
3 71 532 510
3 1 509 510
3 510 2 1
3 3 511 509
3 509 1 3
3 4 512 511
3 511 3 4
3 5 513 512
3 512 4 5
3 533 534 535
3 535 536 533
3 7 515 514
3 534 533 537
3 8 516 515
3 515 7 8
3 9 517 516
3 516 8 9
3 10 518 517
3 517 9 10
3 11 519 518
3 518 10 11
3 12 520 519
3 519 11 12
3 13 521 520
3 520 12 13
3 14 522 521
3 521 13 14
3 15 523 522
3 522 14 15
3 16 524 523
3 523 15 16
3 17 525 524
3 524 16 17
3 18 526 525
3 525 17 18
3 19 527 526
3 526 18 19
3 20 528 527
3 527 19 20
3 21 529 528
3 528 20 21
3 22 530 529
3 529 21 22
3 23 531 530
3 530 22 23
3 24 532 531
3 531 23 24
3 538 539 540
3 540 541 538
3 207 232 205
3 208 235 233
3 143 145 168
3 141 117 118
3 143 118 142
3 142 144 143
3 145 172 174
3 145 169 174
3 170 167 141
3 141 168 170
3 144 142 173
3 173 171 144
3 171 173 172
3 172 145 171
3 209 174 169
3 209 205 169
3 206 204 167
3 167 170 206
3 169 174 173
3 173 171 169
3 171 173 208
3 208 207 171
3 207 208 174
3 174 169 207
3 232 233 204
3 204 206 232
3 207 208 233
3 233 232 207
3 205 209 208
3 208 207 205
3 168 141 118
3 118 143 168
3 534 514 513
3 513 535 534
3 535 513 5
3 5 536 535
3 536 5 6
3 6 533 536
3 533 6 7
3 7 537 533
3 537 7 514
3 514 534 537
3 538 2 510
3 510 539 538
3 539 510 532
3 532 540 539
3 540 532 24
3 24 541 540
3 541 24 2
3 2 538 541
3 182 152 153
3 153 183 182
3 183 153 187
3 187 184 183
3 184 187 181
3 181 185 184
3 185 181 152
3 152 182 185
3 193 159 160
3 160 194 193
3 194 160 198
3 198 195 194
3 195 198 192
3 192 196 195
3 196 192 159
3 159 193 196
3 338 313 314
3 314 339 338
3 339 314 343
3 343 340 339
3 340 343 337
3 337 341 340
3 341 337 313
3 313 338 341
3 349 320 321
3 321 350 349
3 350 321 354
3 354 351 350
3 351 354 348
3 348 352 351
3 352 348 320
3 320 349 352
3 542 543 544
3 542 545 543
3 544 546 547
3 544 543 546
3 547 548 549
3 547 546 548
3 549 550 551
3 549 548 550
3 551 552 553
3 551 550 552
3 553 545 542
3 553 552 545
3 545 554 543
3 545 555 554
3 543 556 546
3 543 554 556
3 546 557 548
3 546 556 557
3 548 558 550
3 548 557 558
3 550 559 552
3 550 558 559
3 552 555 545
3 552 559 555
3 555 560 554
3 555 561 560
3 554 562 556
3 554 560 562
3 556 563 557
3 556 562 563
3 557 564 558
3 557 563 564
3 558 565 559
3 558 564 565
3 559 561 555
3 559 565 561
3 561 566 560
3 561 567 566
3 560 568 562
3 560 566 568
3 562 569 563
3 562 568 569
3 563 570 564
3 563 569 570
3 564 571 565
3 564 570 571
3 565 567 561
3 565 571 567
3 567 572 566
3 567 573 572
3 566 574 568
3 566 572 574
3 568 575 569
3 568 574 575
3 569 576 570
3 569 575 576
3 570 577 571
3 570 576 577
3 571 573 567
3 571 577 573
3 573 578 572
3 573 579 578
3 572 580 574
3 572 578 580
3 574 581 575
3 574 580 581
3 575 582 576
3 575 581 582
3 576 583 577
3 576 582 583
3 577 579 573
3 577 583 579
3 579 584 578
3 579 585 584
3 578 586 580
3 578 584 586
3 580 587 581
3 580 586 587
3 581 588 582
3 581 587 588
3 582 589 583
3 582 588 589
3 583 585 579
3 583 589 585
3 585 590 584
3 585 591 590
3 584 592 586
3 584 590 592
3 586 593 587
3 586 592 593
3 587 594 588
3 587 593 594
3 588 595 589
3 588 594 595
3 589 591 585
3 589 595 591
3 591 596 590
3 591 597 596
3 590 598 592
3 590 596 598
3 592 599 593
3 592 598 599
3 593 600 594
3 593 599 600
3 594 601 595
3 594 600 601
3 595 597 591
3 595 601 597
3 597 602 596
3 597 603 602
3 596 604 598
3 596 602 604
3 598 605 599
3 598 604 605
3 599 606 600
3 599 605 606
3 600 607 601
3 600 606 607
3 601 603 597
3 601 607 603
3 544 608 542
3 547 608 544
3 549 608 547
3 551 608 549
3 553 608 551
3 542 608 553
3 603 609 602
3 602 609 604
3 604 609 605
3 605 609 606
3 606 609 607
3 607 609 603
3 610 611 612
3 611 613 612
3 614 615 610
3 615 611 610
3 616 617 614
3 617 615 614
3 618 619 616
3 619 617 616
3 620 621 618
3 621 619 618
3 612 613 620
3 613 621 620
3 611 622 613
3 622 623 613
3 615 624 611
3 624 622 611
3 617 625 615
3 625 624 615
3 619 626 617
3 626 625 617
3 621 627 619
3 627 626 619
3 613 623 621
3 623 627 621
3 622 628 623
3 628 629 623
3 624 630 622
3 630 628 622
3 625 631 624
3 631 630 624
3 626 632 625
3 632 631 625
3 627 633 626
3 633 632 626
3 623 629 627
3 629 633 627
3 628 634 629
3 634 635 629
3 630 636 628
3 636 634 628
3 631 637 630
3 637 636 630
3 632 638 631
3 638 637 631
3 633 639 632
3 639 638 632
3 629 635 633
3 635 639 633
3 634 640 635
3 640 641 635
3 636 642 634
3 642 640 634
3 637 643 636
3 643 642 636
3 638 644 637
3 644 643 637
3 639 645 638
3 645 644 638
3 635 641 639
3 641 645 639
3 640 646 641
3 646 647 641
3 642 648 640
3 648 646 640
3 643 649 642
3 649 648 642
3 644 650 643
3 650 649 643
3 645 651 644
3 651 650 644
3 641 647 645
3 647 651 645
3 646 652 647
3 652 653 647
3 648 654 646
3 654 652 646
3 649 655 648
3 655 654 648
3 650 656 649
3 656 655 649
3 651 657 650
3 657 656 650
3 647 653 651
3 653 657 651
3 652 658 653
3 658 659 653
3 654 660 652
3 660 658 652
3 655 661 654
3 661 660 654
3 656 662 655
3 662 661 655
3 657 663 656
3 663 662 656
3 653 659 657
3 659 663 657
3 658 664 659
3 664 665 659
3 660 666 658
3 666 664 658
3 661 667 660
3 667 666 660
3 662 668 661
3 668 667 661
3 663 669 662
3 669 668 662
3 659 665 663
3 665 669 663
3 664 670 665
3 670 671 665
3 666 672 664
3 672 670 664
3 667 673 666
3 673 672 666
3 668 674 667
3 674 673 667
3 669 675 668
3 675 674 668
3 665 671 669
3 671 675 669
3 612 676 610
3 610 676 614
3 614 676 616
3 616 676 618
3 618 676 620
3 620 676 612
3 670 677 671
3 672 677 670
3 673 677 672
3 674 677 673
3 675 677 674
3 671 677 675
3 678 679 680
3 678 680 681
3 679 682 683
3 679 683 680
3 682 684 685
3 682 685 683
3 684 686 687
3 684 687 685
3 686 688 689
3 686 689 687
3 688 678 681
3 688 681 689
3 681 680 690
3 681 690 691
3 680 683 692
3 680 692 690
3 683 685 693
3 685 687 694
3 685 694 693
3 687 689 695
3 687 695 694
3 689 681 691
3 689 691 695
3 679 678 696
3 682 679 696
3 684 682 696
3 686 684 696
3 688 686 696
3 678 688 696
